<svg xmlns="http://www.w3.org/2000/svg" viewBox="0 0 216.1 35"><defs><style>.cls-1{fill:#006fff;}</style></defs><g id="Layer_2" data-name="Layer 2"><g id="Layer_1-2" data-name="Layer 1"><path class="cls-1" d="M0,17.48A17.5,17.5,0,1,1,17.37,35,17.51,17.51,0,0,1,0,17.48Zm31.64,0A14.14,14.14,0,1,0,17.47,31.64,14.15,14.15,0,0,0,31.64,17.51Z"/><path class="cls-1" d="M13.89,9.49V16h7.22V9.49h3.35v16H21.12V18.77H13.89v6.74H10.54v-16Z"/><path class="cls-1" d="M46.88,26.08V8.92h3.48v6.72h6.75V8.92h3.48V26.08H57.11V18.52H50.36v7.56Z"/><path class="cls-1" d="M63,11.85V8.92h3.27v2.93Zm0,14.23V13.77h3.27V26.08Z"/><path class="cls-1" d="M73,26.44a4.64,4.64,0,0,1-3.77-1.76,7.29,7.29,0,0,1-1.44-4.74,7.24,7.24,0,0,1,1.47-4.7A4.7,4.7,0,0,1,73,13.43a3.86,3.86,0,0,1,3.48,1.83h.08V8.92h3.26V26.08H76.67V24.47h0A4,4,0,0,1,73,26.44Zm.72-2.74a2.57,2.57,0,0,0,2.19-1A4.32,4.32,0,0,0,76.62,20q0-3.95-2.86-3.94a2.24,2.24,0,0,0-2,1.06,5,5,0,0,0-.7,2.81,4.88,4.88,0,0,0,.68,2.78A2.21,2.21,0,0,0,73.67,23.7Z"/><path class="cls-1" d="M89.67,26.08a3.35,3.35,0,0,1-.38-1.37h-.05a3.67,3.67,0,0,1-1.34,1.23,5.08,5.08,0,0,1-2.28.43,4.67,4.67,0,0,1-3.12-1,3.4,3.4,0,0,1-1.18-2.78,3.08,3.08,0,0,1,1.3-2.75,8.73,8.73,0,0,1,3.65-1.21,11.53,11.53,0,0,0,2.35-.49.91.91,0,0,0,.62-.9,1.27,1.27,0,0,0-.53-1.07,2.54,2.54,0,0,0-1.53-.4c-1.49,0-2.28.58-2.38,1.73H81.9a3.9,3.9,0,0,1,1.41-2.9,5.83,5.83,0,0,1,3.89-1.15q5.19,0,5.19,4.53v6.27c0,.92.14,1.49.43,1.7v.12Zm-3.26-2a3,3,0,0,0,2.12-.7,2.13,2.13,0,0,0,.78-1.65V19.89a9.45,9.45,0,0,1-2.28.72,5.89,5.89,0,0,0-2,.71,1.34,1.34,0,0,0-.58,1.21Q84.49,24.09,86.41,24.09Z"/><path class="cls-1" d="M94.59,30.11V27.54h1.16c1.21,0,1.82-.56,1.82-1.68a12.5,12.5,0,0,0-.94-3.33l-3.31-8.76h3.43l1.83,5.54L99.37,22h0a22.65,22.65,0,0,1,.72-2.69l1.73-5.54h3.28l-4.29,12.62a7,7,0,0,1-1.62,2.92,4,4,0,0,1-2.73.8Z"/><path class="cls-1" d="M113.65,26.08a3.19,3.19,0,0,1-.38-1.37h0a3.7,3.7,0,0,1-1.35,1.23,5,5,0,0,1-2.28.43,4.71,4.71,0,0,1-3.12-1,3.42,3.42,0,0,1-1.17-2.78,3.09,3.09,0,0,1,1.29-2.75,8.78,8.78,0,0,1,3.65-1.21,11.37,11.37,0,0,0,2.35-.49.91.91,0,0,0,.63-.9,1.27,1.27,0,0,0-.53-1.07,2.57,2.57,0,0,0-1.54-.4c-1.48,0-2.28.58-2.37,1.73h-2.91a3.88,3.88,0,0,1,1.42-2.9,5.81,5.81,0,0,1,3.89-1.15q5.17,0,5.18,4.53v6.27c0,.92.15,1.49.43,1.7v.12Zm-3.27-2a3.06,3.06,0,0,0,2.13-.7,2.13,2.13,0,0,0,.78-1.65V19.89a9.45,9.45,0,0,1-2.28.72,6,6,0,0,0-2,.71,1.36,1.36,0,0,0-.57,1.21C108.47,23.57,109.1,24.09,110.38,24.09Z"/><path class="cls-1" d="M117.46,15.93V13.77h1.71V9.93h3.19v3.84h2.11v2.16h-2.11v6.53a1.08,1.08,0,0,0,1.22,1.22l1,0v2.4c-.49,0-1.17,0-2,0a4,4,0,0,1-2.37-.68,2.6,2.6,0,0,1-1-2.27V15.93Z"/><path class="cls-1" d="M134,26.08a3.35,3.35,0,0,1-.38-1.37h0a3.67,3.67,0,0,1-1.34,1.23,5.08,5.08,0,0,1-2.28.43,4.67,4.67,0,0,1-3.12-1,3.4,3.4,0,0,1-1.18-2.78,3.08,3.08,0,0,1,1.3-2.75,8.73,8.73,0,0,1,3.65-1.21,11.53,11.53,0,0,0,2.35-.49.91.91,0,0,0,.62-.9,1.24,1.24,0,0,0-.53-1.07,2.54,2.54,0,0,0-1.53-.4c-1.49,0-2.28.58-2.38,1.73h-2.9a3.9,3.9,0,0,1,1.41-2.9,5.83,5.83,0,0,1,3.89-1.15q5.19,0,5.19,4.53v6.27c0,.92.14,1.49.43,1.7v.12Zm-3.26-2a3,3,0,0,0,2.12-.7,2.13,2.13,0,0,0,.78-1.65V19.89a9.45,9.45,0,0,1-2.28.72,5.89,5.89,0,0,0-2,.71,1.34,1.34,0,0,0-.58,1.21Q128.84,24.09,130.76,24.09Z"/><path class="cls-1" d="M142.06,8.92v6.46h.08a4.62,4.62,0,0,1,1.52-1.48,4.14,4.14,0,0,1,2.05-.47,3.94,3.94,0,0,1,3.07,1.29A4.68,4.68,0,0,1,150,18v8H146.7V18.52a2.31,2.31,0,0,0-.57-1.63,2,2,0,0,0-1.57-.63,2.3,2.3,0,0,0-1.79.8,2.93,2.93,0,0,0-.71,2v7H138.8V8.92Z"/><path class="cls-1" d="M152,26.08V13.77h3.14v1.65h.07a3.9,3.9,0,0,1,3.58-2,3.67,3.67,0,0,1,2,.59,3.77,3.77,0,0,1,1.36,1.57h0a4.16,4.16,0,0,1,3.7-2.16,3.84,3.84,0,0,1,3,1.17A4.55,4.55,0,0,1,170,17.8v8.28h-3.27V18.35c0-1.41-.63-2.11-1.89-2.11a2,2,0,0,0-1.62.73,3,3,0,0,0-.59,2v7.15h-3.27V18.35c0-1.41-.63-2.11-1.89-2.11a2,2,0,0,0-1.6.73,3,3,0,0,0-.61,2v7.15Z"/><path class="cls-1" d="M179.74,26.08a3.35,3.35,0,0,1-.38-1.37h-.05A3.67,3.67,0,0,1,178,25.94a5.08,5.08,0,0,1-2.28.43,4.67,4.67,0,0,1-3.12-1,3.4,3.4,0,0,1-1.18-2.78,3.08,3.08,0,0,1,1.3-2.75,8.73,8.73,0,0,1,3.65-1.21,11.53,11.53,0,0,0,2.35-.49.91.91,0,0,0,.62-.9,1.24,1.24,0,0,0-.53-1.07,2.54,2.54,0,0,0-1.53-.4c-1.49,0-2.28.58-2.38,1.73H172a3.9,3.9,0,0,1,1.41-2.9,5.83,5.83,0,0,1,3.89-1.15q5.19,0,5.19,4.53v6.27c0,.92.14,1.49.43,1.7v.12Zm-3.26-2a3,3,0,0,0,2.12-.7,2.13,2.13,0,0,0,.78-1.65V19.89a9.45,9.45,0,0,1-2.28.72,5.89,5.89,0,0,0-2,.71,1.34,1.34,0,0,0-.58,1.21Q174.56,24.09,176.48,24.09Z"/><path class="cls-1" d="M189.13,26.44a4.65,4.65,0,0,1-3.77-1.76,7.29,7.29,0,0,1-1.44-4.74,7.19,7.19,0,0,1,1.48-4.7,4.67,4.67,0,0,1,3.78-1.81,3.88,3.88,0,0,1,3.48,1.83h.07V8.92H196V26.08h-3.14V24.47h0A4,4,0,0,1,189.13,26.44Zm.72-2.74a2.57,2.57,0,0,0,2.19-1A4.32,4.32,0,0,0,192.8,20q0-3.95-2.86-3.94a2.24,2.24,0,0,0-2,1.06,5,5,0,0,0-.7,2.81,4.8,4.8,0,0,0,.69,2.78A2.2,2.2,0,0,0,189.85,23.7Z"/><path class="cls-1" d="M198.1,26.08V13.77h3.15v1.65h.07a3.89,3.89,0,0,1,3.58-2,3.67,3.67,0,0,1,3.4,2.16h0a4.16,4.16,0,0,1,3.7-2.16,3.86,3.86,0,0,1,3,1.17,4.55,4.55,0,0,1,1.06,3.2v8.28h-3.26V18.35c0-1.41-.63-2.11-1.9-2.11a2,2,0,0,0-1.62.73,3,3,0,0,0-.58,2v7.15h-3.27V18.35c0-1.41-.63-2.11-1.89-2.11A2,2,0,0,0,202,17a3,3,0,0,0-.61,2v7.15Z"/></g></g></svg>