<?xml version="1.0" encoding="utf-8"?>
<!-- Generator: Adobe Illustrator 25.0.0, SVG Export Plug-In . SVG Version: 6.00 Build 0)  -->
<svg version="1.1" id="Layer_1" xmlns="http://www.w3.org/2000/svg" xmlns:xlink="http://www.w3.org/1999/xlink" x="0px" y="0px"
	 viewBox="0 0 216.1 35" style="enable-background:new 0 0 216.1 35;" xml:space="preserve">
<style type="text/css">
	.st0{fill:#FFFFFF;}
</style>
<g id="Layer_2_1_">
	<g id="Layer_1-2">
		<path class="st0" d="M0,17.5C0,7.8,7.9,0,17.5,0S35,7.9,35,17.5C35,27.2,27.1,35,17.5,35c0,0-0.1,0-0.1,0C7.8,34.9,0,27.1,0,17.5z
			 M31.6,17.5c0-7.8-6.4-14.1-14.2-14.1S3.3,9.7,3.4,17.5c0,7.8,6.3,14.1,14.1,14.1C25.3,31.7,31.6,25.3,31.6,17.5
			C31.6,17.5,31.6,17.5,31.6,17.5L31.6,17.5z"/>
		<path class="st0" d="M13.9,9.5V16h7.2V9.5h3.4v16h-3.3v-6.7h-7.2v6.7h-3.4v-16L13.9,9.5z"/>
		<path class="st0" d="M46.9,26.1V8.9h3.5v6.7h6.8V8.9h3.5v17.2h-3.5v-7.6h-6.8v7.6H46.9z"/>
		<path class="st0" d="M63,11.9V8.9h3.3v2.9H63z M63,26.1V13.8h3.3v12.3H63z"/>
		<path class="st0" d="M73,26.4c-1.5,0-2.9-0.6-3.8-1.8c-1-1.4-1.5-3-1.4-4.7c-0.1-1.7,0.4-3.4,1.5-4.7c0.9-1.2,2.3-1.8,3.7-1.8
			c1.4-0.1,2.7,0.6,3.5,1.8h0.1V8.9h3.3v17.2h-3.2v-1.6l0,0C75.9,25.8,74.5,26.5,73,26.4z M73.7,23.7c0.9,0.1,1.7-0.3,2.2-1
			c0.5-0.8,0.8-1.7,0.7-2.7c0-2.6-1-3.9-2.9-3.9c-0.8,0-1.6,0.4-2,1.1c-0.5,0.8-0.7,1.8-0.7,2.8c-0.1,1,0.2,1.9,0.7,2.8
			C72.2,23.4,72.9,23.7,73.7,23.7L73.7,23.7z"/>
		<path class="st0" d="M89.7,26.1c-0.2-0.4-0.4-0.9-0.4-1.4h-0.1c-0.3,0.5-0.8,0.9-1.3,1.2c-0.7,0.3-1.5,0.5-2.3,0.4
			c-1.1,0.1-2.2-0.3-3.1-1c-0.8-0.7-1.2-1.7-1.2-2.8c-0.1-1.1,0.4-2.1,1.3-2.8c1.1-0.7,2.4-1.1,3.7-1.2c0.8-0.1,1.6-0.2,2.3-0.5
			c0.4-0.1,0.6-0.5,0.6-0.9c0-0.4-0.2-0.8-0.5-1.1c-0.5-0.3-1-0.4-1.5-0.4c-1.5,0-2.3,0.6-2.4,1.7h-2.9c0-1.1,0.5-2.2,1.4-2.9
			c1.1-0.8,2.5-1.2,3.9-1.1c3.5,0,5.2,1.5,5.2,4.5v6.3c0,0.9,0.1,1.5,0.4,1.7v0.1L89.7,26.1z M86.4,24.1c0.8,0,1.5-0.2,2.1-0.7
			c0.5-0.4,0.8-1,0.8-1.6v-1.8c-0.7,0.3-1.5,0.6-2.3,0.7c-0.7,0.1-1.4,0.4-2,0.7c-0.4,0.3-0.6,0.7-0.6,1.2
			C84.5,23.6,85.1,24.1,86.4,24.1L86.4,24.1z"/>
		<path class="st0" d="M94.6,30.1v-2.6h1.2c1.2,0,1.8-0.6,1.8-1.7c-0.2-1.1-0.5-2.3-0.9-3.3l-3.3-8.8h3.4l1.8,5.5l0.8,2.7l0,0
			c0.2-0.9,0.4-1.8,0.7-2.7l1.7-5.5h3.3l-4.3,12.6c-0.3,1.1-0.9,2.1-1.6,2.9c-0.8,0.6-1.8,0.9-2.7,0.8L94.6,30.1z"/>
		<path class="st0" d="M113.7,26.1c-0.2-0.4-0.4-0.9-0.4-1.4l0,0c-0.3,0.5-0.8,0.9-1.3,1.2c-0.7,0.3-1.5,0.5-2.3,0.4
			c-1.1,0.1-2.2-0.3-3.1-1c-0.8-0.7-1.2-1.7-1.2-2.8c-0.1-1.1,0.4-2.1,1.3-2.8c1.1-0.7,2.4-1.1,3.7-1.2c0.8-0.1,1.6-0.2,2.3-0.5
			c0.4-0.1,0.6-0.5,0.6-0.9c0-0.4-0.2-0.8-0.5-1.1c-0.5-0.3-1-0.4-1.5-0.4c-1.5,0-2.3,0.6-2.4,1.7h-2.9c0-1.1,0.5-2.2,1.4-2.9
			c1.1-0.8,2.5-1.2,3.9-1.1c3.4,0,5.2,1.5,5.2,4.5v6.3c0,0.9,0.2,1.5,0.4,1.7v0.1L113.7,26.1z M110.4,24.1c0.8,0,1.5-0.2,2.1-0.7
			c0.5-0.4,0.8-1,0.8-1.6v-1.8c-0.7,0.3-1.5,0.6-2.3,0.7c-0.7,0.1-1.4,0.4-2,0.7c-0.4,0.3-0.6,0.7-0.6,1.2
			C108.5,23.6,109.1,24.1,110.4,24.1L110.4,24.1z"/>
		<path class="st0" d="M117.5,15.9v-2.2h1.7V9.9h3.2v3.8h2.1v2.2h-2.1v6.5c-0.1,0.6,0.3,1.1,0.9,1.2c0.1,0,0.2,0,0.3,0h1v2.4
			c-0.5,0-1.2,0-2,0c-0.8,0-1.7-0.2-2.4-0.7c-0.7-0.5-1.1-1.4-1-2.3v-7.2H117.5z"/>
		<path class="st0" d="M134,26.1c-0.2-0.4-0.4-0.9-0.4-1.4l0,0c-0.3,0.5-0.8,0.9-1.3,1.2c-0.7,0.3-1.5,0.5-2.3,0.4
			c-1.1,0.1-2.2-0.3-3.1-1c-0.8-0.7-1.2-1.7-1.2-2.8c-0.1-1.1,0.4-2.1,1.3-2.8c1.1-0.7,2.4-1.1,3.6-1.2c0.8-0.1,1.6-0.2,2.4-0.5
			c0.4-0.1,0.6-0.5,0.6-0.9c0-0.4-0.2-0.8-0.5-1.1c-0.5-0.3-1-0.4-1.5-0.4c-1.5,0-2.3,0.6-2.4,1.7h-2.9c0-1.1,0.5-2.2,1.4-2.9
			c1.1-0.8,2.5-1.2,3.9-1.1c3.5,0,5.2,1.5,5.2,4.5v6.3c0,0.9,0.1,1.5,0.4,1.7v0.1L134,26.1z M130.7,24.1c0.8,0,1.5-0.2,2.1-0.7
			c0.5-0.4,0.8-1,0.8-1.6v-1.8c-0.7,0.3-1.5,0.6-2.3,0.7c-0.7,0.1-1.4,0.4-2,0.7c-0.4,0.3-0.6,0.7-0.6,1.2
			C128.8,23.6,129.5,24.1,130.7,24.1L130.7,24.1z"/>
		<path class="st0" d="M142.1,8.9v6.5h0.1c0.4-0.6,0.9-1.1,1.5-1.5c0.6-0.3,1.3-0.5,2.1-0.5c1.2,0,2.3,0.4,3.1,1.3
			c0.8,0.9,1.3,2.1,1.2,3.3v8h-3.3v-7.5c0-0.6-0.2-1.2-0.6-1.6c-0.4-0.4-1-0.7-1.6-0.6c-0.7,0-1.3,0.3-1.8,0.8
			c-0.5,0.6-0.7,1.3-0.7,2v7h-3.3V8.9H142.1z"/>
		<path class="st0" d="M152,26.1V13.8h3.1v1.6h0.1c0.7-1.3,2.1-2.1,3.6-2c0.7,0,1.4,0.2,2,0.6c0.6,0.4,1.1,0.9,1.4,1.6l0,0
			c0.7-1.3,2.2-2.2,3.7-2.2c1.1-0.1,2.2,0.4,3,1.2c0.8,0.9,1.2,2,1.1,3.2v8.3h-3.3v-7.7c0-1.4-0.6-2.1-1.9-2.1
			c-0.6,0-1.2,0.2-1.6,0.7c-0.4,0.6-0.6,1.3-0.6,2v7.1h-3.3v-7.8c0-1.4-0.6-2.1-1.9-2.1c-0.6,0-1.2,0.3-1.6,0.7
			c-0.4,0.6-0.7,1.3-0.6,2v7.1L152,26.1z"/>
		<path class="st0" d="M179.7,26.1c-0.2-0.4-0.4-0.9-0.4-1.4h-0.1c-0.3,0.5-0.8,0.9-1.3,1.2c-0.7,0.3-1.5,0.5-2.3,0.4
			c-1.1,0.1-2.2-0.3-3.1-1c-0.8-0.7-1.2-1.7-1.2-2.8c-0.1-1.1,0.4-2.1,1.3-2.8c1.1-0.7,2.4-1.1,3.6-1.2c0.8-0.1,1.6-0.2,2.4-0.5
			c0.4-0.1,0.6-0.5,0.6-0.9c0-0.4-0.2-0.8-0.5-1.1c-0.5-0.3-1-0.4-1.5-0.4c-1.5,0-2.3,0.6-2.4,1.7H172c0-1.1,0.5-2.2,1.4-2.9
			c1.1-0.8,2.5-1.2,3.9-1.1c3.5,0,5.2,1.5,5.2,4.5v6.3c0,0.9,0.1,1.5,0.4,1.7v0.1L179.7,26.1z M176.5,24.1c0.8,0,1.5-0.2,2.1-0.7
			c0.5-0.4,0.8-1,0.8-1.6v-1.8c-0.7,0.3-1.5,0.6-2.3,0.7c-0.7,0.1-1.4,0.4-2,0.7c-0.4,0.3-0.6,0.7-0.6,1.2
			C174.5,23.6,175.2,24.1,176.5,24.1L176.5,24.1z"/>
		<path class="st0" d="M189.1,26.4c-1.5,0-2.9-0.6-3.8-1.8c-1-1.4-1.5-3-1.4-4.7c-0.1-1.7,0.4-3.4,1.5-4.7c0.9-1.2,2.3-1.8,3.8-1.8
			c1.4-0.1,2.7,0.6,3.5,1.8h0.1V8.9h3.3v17.2h-3.1v-1.6l0,0C192.1,25.8,190.6,26.5,189.1,26.4z M189.9,23.7c0.9,0.1,1.7-0.3,2.2-1
			c0.5-0.8,0.8-1.7,0.8-2.7c0-2.6-1-3.9-2.9-3.9c-0.8,0-1.6,0.4-2,1.1c-0.5,0.8-0.7,1.8-0.7,2.8c-0.1,1,0.2,1.9,0.7,2.8
			C188.4,23.4,189.1,23.7,189.9,23.7z"/>
		<path class="st0" d="M198.1,26.1V13.8h3.1v1.6h0.1c0.7-1.3,2.1-2.1,3.6-2c1.5,0,2.8,0.8,3.4,2.2l0,0c0.7-1.3,2.2-2.2,3.7-2.2
			c1.1-0.1,2.2,0.4,3,1.2c0.8,0.9,1.1,2,1.1,3.2v8.3h-3.3v-7.7c0-1.4-0.6-2.1-1.9-2.1c-0.6,0-1.2,0.2-1.6,0.7
			c-0.4,0.6-0.6,1.3-0.6,2v7.1h-3.3v-7.8c0-1.4-0.6-2.1-1.9-2.1c-0.6,0-1.2,0.3-1.5,0.8c-0.4,0.6-0.7,1.3-0.6,2v7.1L198.1,26.1z"/>
	</g>
</g>
</svg>
